<svg xmlns="http://www.w3.org/2000/svg" viewBox="0 0 702.79 162"><defs><style>.cls-1{fill:#fff;}.cls-2{fill:#c7f022;}</style></defs><g id="Layer_2" data-name="Layer 2"><g id="Layer_1-2" data-name="Layer 1"><path class="cls-1" d="M0,51.11H18.53v7.14h.31a18.17,18.17,0,0,1,2.05-2.73A16.87,16.87,0,0,1,25,52.25a30.6,30.6,0,0,1,6.53-2.81,31.47,31.47,0,0,1,9.34-1.21,37.7,37.7,0,0,1,4.56.38,28.47,28.47,0,0,1,6.3,1.67,27.68,27.68,0,0,1,6.91,3.95,29.48,29.48,0,0,1,6.54,7.21,29.74,29.74,0,0,1,7.14-7.36,30.44,30.44,0,0,1,7.51-3.95,29.78,29.78,0,0,1,7-1.6q3.27-.3,5.55-.3a37.46,37.46,0,0,1,10.93,1.44,35,35,0,0,1,8,3.49,26.18,26.18,0,0,1,5.47,4.33q2.13,2.28,3.34,3.8a30.19,30.19,0,0,1,4.49,9.42,53.14,53.14,0,0,1,1.89,15.49v49.22h-20.2V88.63c0-1.21-.07-3-.23-5.47a22.53,22.53,0,0,0-1.74-7.29,16.71,16.71,0,0,0-4.79-6.38q-3.27-2.73-9.19-2.73a16.22,16.22,0,0,0-8,2.13,15.42,15.42,0,0,0-5.92,5.77A19.37,19.37,0,0,0,73.82,83q-.45,4.86-.45,8.81v43.6H53.17V88.63a37.33,37.33,0,0,0-.92-8.28,20.64,20.64,0,0,0-2.88-7,15.15,15.15,0,0,0-5.17-4.79,15.76,15.76,0,0,0-7.9-1.82q-6.07,0-9.34,2.89a16.91,16.91,0,0,0-4.78,7.06,29.52,29.52,0,0,0-1.75,8.73c-.15,3-.23,5.68-.23,7.9v42.08H0Z"/><path class="cls-2" d="M227.24,107.92Q222.08,122.2,211,130.18t-26,8A45.57,45.57,0,0,1,154.48,126a46.35,46.35,0,0,1-10.33-14.28,43.58,43.58,0,0,1-4-18.83A42.77,42.77,0,0,1,143.93,75a44.67,44.67,0,0,1,24.15-23.39,43.65,43.65,0,0,1,16.78-3.34,54,54,0,0,1,9.88,1.14,41.86,41.86,0,0,1,12.07,4.48,45.31,45.31,0,0,1,11.7,9.42,42.76,42.76,0,0,1,8.73,15.79H204.46c-.61-1-1.39-2.22-2.36-3.64a21,21,0,0,0-3.72-4.1,19.1,19.1,0,0,0-5.54-3.27,21.8,21.8,0,0,0-8-1.29,25.2,25.2,0,0,0-9,1.67,22.66,22.66,0,0,0-7.82,5,25.61,25.61,0,0,0-5.55,8.28,28.77,28.77,0,0,0-2.12,11.47,28.42,28.42,0,0,0,1.82,10.25,24.79,24.79,0,0,0,13.14,14,24.6,24.6,0,0,0,10.4,2.13,20.29,20.29,0,0,0,9.88-2.66q4.86-2.65,8.81-9Z"/><path class="cls-1" d="M280.56,138.15a43.67,43.67,0,0,1-17.62-3.57,45,45,0,0,1-14.28-9.72,45.93,45.93,0,0,1-9.57-14.28,43.13,43.13,0,0,1-3.49-17.24,43.8,43.8,0,0,1,3.64-17.85A45.33,45.33,0,0,1,249,61.21a46.77,46.77,0,0,1,14.28-9.49,43.2,43.2,0,0,1,17.24-3.49,43.84,43.84,0,0,1,17,3.34,44.69,44.69,0,0,1,14.21,9.34,45.41,45.41,0,0,1,9.79,14.2A43.52,43.52,0,0,1,325.22,93a45.41,45.41,0,0,1-3.72,18.68A43.3,43.3,0,0,1,297.42,135,45.31,45.31,0,0,1,280.56,138.15Zm0-18.53a22.72,22.72,0,0,0,10-2.2,24.11,24.11,0,0,0,7.74-5.85,26.45,26.45,0,0,0,4.94-8.35A27.86,27.86,0,0,0,305,93.49a27.22,27.22,0,0,0-2-10.63,27.56,27.56,0,0,0-5.47-8.43,26,26,0,0,0-7.82-5.62,21.36,21.36,0,0,0-9.12-2,23.1,23.1,0,0,0-8.28,1.67,25.44,25.44,0,0,0-8,5,27.45,27.45,0,0,0-6.08,8.36,26.14,26.14,0,0,0-2.43,11.54,27.45,27.45,0,0,0,2.05,10.79,25.11,25.11,0,0,0,5.55,8.28,25.73,25.73,0,0,0,7.9,5.31A23,23,0,0,0,280.56,119.62Z"/><path class="cls-1" d="M422.89,135.42H404.36V125.09h-.3a23.14,23.14,0,0,1-3.8,4.63,26.73,26.73,0,0,1-5.77,4.18,36.61,36.61,0,0,1-7.67,3,35.69,35.69,0,0,1-9.65,1.21,41.1,41.1,0,0,1-15.8-3.19,42.84,42.84,0,0,1-13.74-9,45.25,45.25,0,0,1-9.73-14.12,44.54,44.54,0,0,1-3.72-18.46,44.54,44.54,0,0,1,3.88-19,46.18,46.18,0,0,1,10-14.2,42.67,42.67,0,0,1,13.82-8.88,41.18,41.18,0,0,1,15.27-3q9.27,0,15.19,2.81a33.87,33.87,0,0,1,10.33,7.52V23h20.2Zm-68.5-42.84a28,28,0,0,0,2.05,10.86A27.21,27.21,0,0,0,361.9,112a25.61,25.61,0,0,0,7.9,5.62,22.55,22.55,0,0,0,9.5,2.05,22.31,22.31,0,0,0,10.25-2.35,26.19,26.19,0,0,0,7.9-6.08,26.63,26.63,0,0,0,5-8.43,27.21,27.21,0,0,0,1.75-9.57,26.67,26.67,0,0,0-1.9-10,27.22,27.22,0,0,0-5.24-8.43,25.93,25.93,0,0,0-7.9-5.85,23.41,23.41,0,0,0-20.13.15,26.18,26.18,0,0,0-7.89,6.08,27.15,27.15,0,0,0-5,8.35A25.66,25.66,0,0,0,354.39,92.58Z"/><path class="cls-1" d="M455.25,102.3a15.19,15.19,0,0,0,2,5.09,24.35,24.35,0,0,0,4.56,5.7,25.42,25.42,0,0,0,7.06,4.63,23.05,23.05,0,0,0,9.65,1.9q13.51,0,19.44-10.78H519.2a38.52,38.52,0,0,1-5.62,11,45.29,45.29,0,0,1-9.12,9.34,44.66,44.66,0,0,1-11.92,6.53,40.41,40.41,0,0,1-14.05,2.43,44.82,44.82,0,0,1-17.77-3.49,43.06,43.06,0,0,1-14.13-9.57,44.19,44.19,0,0,1-9.27-14.2A45.28,45.28,0,0,1,434,93.49a46.87,46.87,0,0,1,3.19-17.16,45,45,0,0,1,9-14.43,43.1,43.1,0,0,1,14-9.95,43.62,43.62,0,0,1,18.23-3.72,42.05,42.05,0,0,1,32.12,14,45.87,45.87,0,0,1,11.47,29.93,37.58,37.58,0,0,1-.38,5.54c-.25,1.67-.53,3.22-.83,4.63Zm46-16.25a26.48,26.48,0,0,0-3-8.66,20.61,20.61,0,0,0-5.17-6,21,21,0,0,0-6.76-3.49,26.56,26.56,0,0,0-7.82-1.14,29.49,29.49,0,0,0-6.61.83,22.25,22.25,0,0,0-6.91,3,23.74,23.74,0,0,0-6.15,5.84,25.23,25.23,0,0,0-4.18,9.65Z"/><rect class="cls-1" x="540.79" width="54" height="54"/><rect class="cls-1" x="540.79" y="108" width="54" height="54"/><rect class="cls-1" x="648.79" y="108" width="54" height="54"/><rect class="cls-1" x="648.79" width="54" height="54"/><rect class="cls-2" x="594.79" y="54" width="54" height="54"/></g></g></svg>