<svg xmlns="http://www.w3.org/2000/svg" viewBox="0 0 303.94 162"><defs><style>.cls-1{fill:#c7f022;}.cls-2{fill:#fff;}</style></defs><g id="Layer_2" data-name="Layer 2"><g id="Layer_1-2" data-name="Layer 1"><rect x="141.94" width="54" height="54"/><rect x="141.94" y="108" width="54" height="54"/><rect x="249.94" y="108" width="54" height="54"/><rect x="249.94" width="54" height="54"/><rect class="cls-1" x="195.94" y="54" width="54" height="54"/><rect y="18.91" width="124.26" height="124.26" rx="16.7"/><path class="cls-2" d="M18.53,53H31.3v4.92h.21A13.26,13.26,0,0,1,32.92,56a12.15,12.15,0,0,1,2.83-2.25,21.17,21.17,0,0,1,4.5-1.93A21.64,21.64,0,0,1,46.69,51a26.38,26.38,0,0,1,3.14.26,20.14,20.14,0,0,1,4.35,1.15,19.38,19.38,0,0,1,4.76,2.72,20.59,20.59,0,0,1,4.5,5A20.45,20.45,0,0,1,68.36,55a21,21,0,0,1,5.18-2.72,20.81,20.81,0,0,1,4.82-1.1c1.5-.14,2.77-.21,3.82-.21a26,26,0,0,1,7.54,1,24.4,24.4,0,0,1,5.54,2.41,18.1,18.1,0,0,1,3.77,3c1,1,1.75,1.92,2.31,2.62a21,21,0,0,1,3.08,6.49,36.22,36.22,0,0,1,1.31,10.68v33.92H91.81V78.84c0-.83,0-2.09-.16-3.76a15.38,15.38,0,0,0-1.2-5,11.54,11.54,0,0,0-3.3-4.4,9.62,9.62,0,0,0-6.33-1.88,11.14,11.14,0,0,0-5.55,1.47,10.53,10.53,0,0,0-4.08,4A13.33,13.33,0,0,0,69.41,75q-.31,3.36-.32,6.07v30.05H55.17V78.84a25.67,25.67,0,0,0-.63-5.7,14.26,14.26,0,0,0-2-4.82A10.32,10.32,0,0,0,49,65a10.78,10.78,0,0,0-5.44-1.26,9.4,9.4,0,0,0-6.44,2,11.8,11.8,0,0,0-3.3,4.87,20.91,20.91,0,0,0-1.2,6c-.1,2.09-.16,3.91-.16,5.44v29H18.53Z"/></g></g></svg>